# xmcd
#
# Track frame offsets:
#	150
#	17938
#	36806
#	57401
#	115346
#	139395
#	160205
#	178108
#	200408
#	223586
#
# Disc length: 3378 seconds
#
# Revision: 0
# Processed by: cddbd v1.5PL3 Copyright (c) Steve Scherf et al.
# Submitted via: audiograbber 1.82.01
#
DISCID=960d300a
DTITLE=Kenny Wayne Shepherd Band - House Of Blues - Live CD1
DYEAR=1998
DGENRE=Blues
TTITLE0=Trouble Is
TTITLE1=Boogie
TTITLE2=Born With A Broken Heart
TTITLE3=Shame Shame Shame
TTITLE4=(Long) Done
TTITLE5=Kings Highway
TTITLE6=Everything Is Broken
TTITLE7=One Foot On The Path
TTITLE8=What's Goin Down
TTITLE9=True Lies
EXTD=
EXTT0=
EXTT1=
EXTT2=
EXTT3=
EXTT4=
EXTT5=
EXTT6=
EXTT7=
EXTT8=
EXTT9=
PLAYORDER=
